<svg width="28" height="28" viewBox="0 0 28 28" fill="none"><path d="M4 19V17.25H5V19C5 19.5523 5.44772 20 6 20V21L5.7959 20.9893C4.78722 20.887 4 20.0357 4 19ZM7.75 20V21H6V20H7.75ZM5 10.25V13.75H4V10.25H5ZM4 5C4 3.89543 4.89543 3 6 3H7.75V4H6C5.44772 4 5 4.44772 5 5V6.75H4V5ZM22 6.75H21V5C21 4.44772 20.5523 4 20 4H18.25V3H20C21.1046 3 22 3.89543 22 5V6.75ZM14.75 3V4H11.25V3H14.75Z" fill="black"></path><path d="M22 13.75V10.25H21V13.75H22Z" fill="black"></path><path d="M17.75 20.75C20 21 21.25 22.25 21.5 24.5C21.75 22.25 23 21 25.25 20.75C23 20.5 21.75 19.25 21.5 17C21.25 19.25 20 20.5 17.75 20.75Z" stroke="black" stroke-linecap="round" stroke-linejoin="round"></path><rect x="16.6891" y="10.3095" width="2" height="17.435" rx="1" transform="rotate(32.5452 16.6891 10.3095)" stroke="black"></rect></svg>