<svg width="16" height="16" viewBox="0 0 16 16" fill="none"><path fill-rule="evenodd" clip-rule="evenodd" d="M11 5C11.8284 5 12.5 4.32843 12.5 3.5C12.5 2.67157 11.8284 2 11 2C10.1716 2 9.5 2.67157 9.5 3.5C9.5 4.32843 10.1716 5 11 5ZM13 3.45001C13 3.71524 12.9484 3.9684 12.8546 4.20001H14.25C14.6642 4.20001 15 3.86423 15 3.45001C15 3.0358 14.6642 2.70001 14.25 2.70001H12.8546C12.9484 2.93162 13 3.18479 13 3.45001ZM1.75 4.20001H9.14538C9.05163 3.9684 9 3.71524 9 3.45001C9 3.18479 9.05163 2.93162 9.14538 2.70001H1.75C1.33579 2.70001 1 3.0358 1 3.45001C1 3.86423 1.33579 4.20001 1.75 4.20001ZM5 6.5C4.17157 6.5 3.5 7.17157 3.5 8C3.5 8.82843 4.17157 9.5 5 9.5C5.82843 9.5 6.5 8.82843 6.5 8C6.5 7.17157 5.82843 6.5 5 6.5ZM3 8.04999C3 7.78476 3.05163 7.5316 3.14538 7.29999H1.75C1.33579 7.29999 1 7.63578 1 8.04999C1 8.4642 1.33579 8.79999 1.75 8.79999H3.14538C3.05163 8.56838 3 8.31521 3 8.04999ZM14.25 7.29999L6.85462 7.29999C6.94837 7.5316 7 7.78476 7 8.04999C7 8.31521 6.94837 8.56838 6.85462 8.79999L14.25 8.79999C14.6642 8.79999 15 8.4642 15 8.04999C15 7.63577 14.6642 7.29999 14.25 7.29999ZM12.5 12.5C12.5 13.3284 11.8284 14 11 14C10.1716 14 9.5 13.3284 9.5 12.5C9.5 11.6716 10.1716 11 11 11C11.8284 11 12.5 11.6716 12.5 12.5ZM12.8546 13.2C12.9484 12.9684 13 12.7152 13 12.45C13 12.1848 12.9484 11.9316 12.8546 11.7H14.25C14.6642 11.7 15 12.0358 15 12.45C15 12.8642 14.6642 13.2 14.25 13.2H12.8546ZM9.14538 13.2H1.75C1.33579 13.2 1 12.8642 1 12.45C1 12.0358 1.33579 11.7 1.75 11.7H9.14538C9.05163 11.9316 9 12.1848 9 12.45C9 12.7152 9.05163 12.9684 9.14538 13.2Z" fill="currentColor"></path></svg>